# xmcd
#
# Track frame offsets: 
#        150
#        17267
#        34296
#        50169
#        68906
#        81899
#        98957
#        115055
#        132877
#        147761
#        165838
#        184652
#
# Disc length: 2779 seconds
#
# Revision: 0
# Processed by: cddbd v1.5.2PL0 Copyright (c) Steve Scherf et al.
# Submitted via: ExactAudioCopy v1.3
#
DISCID=980ad90c
DTITLE=Fathead - Building Full Of Blues
DYEAR=2007
DGENRE=Blues
TTITLE0=Jellyfish Blues
TTITLE1=Fire In The Hole
TTITLE2=What About Me
TTITLE3=Bitter When I'm Old
TTITLE4=Katrina
TTITLE5=One Day The Sun Will Shine
TTITLE6=Apartment 10
TTITLE7=I Pity The Fool
TTITLE8=Too Many Heartaches
TTITLE9=Backwoods Paradise
TTITLE10=The Last Time
TTITLE11=Building Full Of Blues
EXTD=
EXTT0=
EXTT1=
EXTT2=
EXTT3=
EXTT4=
EXTT5=
EXTT6=
EXTT7=
EXTT8=
EXTT9=
EXTT10=
EXTT11=
PLAYORDER=
